<svg width="368" height="298" viewBox="0 0 368 298" fill="none" xmlns="http://www.w3.org/2000/svg">
<g clip-path="url(#clip0_835_28)">
<path d="M367.2 35.3017C353.689 41.27 339.234 45.3562 324.048 47.1381C339.548 37.8136 351.492 23.0502 357.146 5.55324C342.583 14.1407 326.56 20.4239 309.385 23.7802C295.659 9.10989 276.073 0 254.497 0C212.912 0 179.292 33.7273 179.292 75.2049C179.292 81.073 179.921 86.8338 181.281 92.3799C118.75 89.2383 63.3391 59.2823 26.2555 13.8187C19.7648 24.9252 16.0937 37.8064 16.0937 51.6322C16.0937 77.7167 29.3971 100.76 49.5061 114.271C37.1473 113.849 25.6258 110.499 15.4639 104.846V105.791C15.4639 142.245 41.4411 172.616 75.7981 179.528C69.515 181.203 62.8096 182.148 56.004 182.148C51.1878 182.148 46.4719 181.625 41.8633 180.788C51.3954 210.644 79.2546 232.427 112.145 233.057C86.3751 253.274 54.0146 265.217 18.7128 265.217C12.6372 265.217 6.66889 264.902 0.800781 264.172C34.1131 285.541 73.6012 298.007 116.124 298.007C254.489 298.007 330.116 183.414 330.116 84.0142C330.116 80.7653 330.009 77.5235 329.909 74.2746C344.365 63.5903 357.146 50.3942 367.2 35.3089V35.3017Z" fill="white"/>
</g>
<defs>
<clipPath id="clip0_835_28">
<rect width="366.399" height="298" fill="white" transform="translate(0.800781)"/>
</clipPath>
</defs>
</svg>
