<svg width="298" height="298" viewBox="0 0 298 298" fill="none" xmlns="http://www.w3.org/2000/svg">
<path d="M149 0C66.6426 0 0 66.6426 0 149C0 231.357 66.6426 298 149 298C231.357 298 298 231.357 298 149C298 66.6426 231.357 0 149 0ZM79.6219 177.694C76.3625 177.694 73.6852 175.541 72.0555 172.805C70.9496 170.652 70.4258 167.916 69.902 163.609C68.7961 152.259 69.902 135.439 73.6852 129.502C75.8387 126.243 78.5742 124.613 81.8336 125.195C83.9871 125.195 83.9871 125.195 118.152 139.28C119.258 139.804 121.412 140.386 127.93 143.063C132.238 144.693 134.973 149 134.449 153.889C133.925 158.778 131.19 162.561 127.407 163.667C126.883 163.667 124.147 164.773 113.845 167.974C84.5109 177.17 81.8336 177.694 79.6219 177.694ZM151.154 196.145C151.154 229.204 151.154 229.204 150.63 231.357C149.524 234.617 146.846 236.246 143.587 237.294C143.063 237.294 142.481 237.294 141.434 237.294C131.132 237.294 108.374 228.622 102.961 222.103C101.855 220.473 100.808 218.844 100.808 216.69C100.808 215.584 100.808 213.955 101.332 212.907C101.855 211.277 101.855 210.754 126.243 182.583L126.766 182.059C128.396 180.43 132.703 175.017 132.703 175.017C135.439 171.757 140.27 170.128 145.159 172.281C149.466 173.911 152.201 177.694 152.201 182.059L151.154 196.145ZM144.111 131.655C143.005 132.179 141.957 132.179 141.375 132.179C137.068 132.179 133.227 128.92 129.444 122.983C125.137 116.464 87.7703 57.4465 86.6645 55.293C85.5586 52.0336 86.6645 48.7742 89.4 46.0969C95.9188 39.0543 130.55 29.2762 139.804 32.0117C143.587 33.1176 145.741 35.2711 146.846 38.5305C147.37 41.7898 151.736 102.438 152.259 115.999C151.736 124.613 149.524 130.026 144.111 131.655ZM163.085 131.655L171.234 120.306C190.208 93.7652 190.732 93.7652 192.361 92.6594C195.097 91.0297 198.298 90.5059 201.557 92.1356C209.124 95.9188 224.839 118.676 225.421 127.872V128.396C225.421 131.655 224.315 134.915 221.637 136.545C220.008 137.65 219.484 137.65 183.689 146.323C183.689 146.323 173.387 149.582 169.08 148.476C166.345 147.952 164.191 146.323 162.561 143.587C160.35 139.804 160.35 134.915 163.085 131.655ZM227.05 187.472C225.945 196.145 208.6 218.378 200.51 221.579C199.404 222.103 197.774 222.103 196.727 222.103C194.573 222.103 192.943 221.579 191.314 220.473C189.684 219.368 189.16 218.32 170.186 187.414L164.773 178.742C162.038 174.959 162.62 170.07 165.879 166.286C169.138 162.503 173.445 161.397 177.229 162.503C177.752 162.503 185.377 165.239 190.79 166.81C222.22 177.112 222.22 177.112 223.849 178.16C226.468 180.954 227.574 184.213 227.05 187.472Z" fill="white"/>
</svg>
