<svg width="430" height="430" viewBox="0 0 430 430" fill="none" xmlns="http://www.w3.org/2000/svg">
<rect width="430" height="430" rx="92" fill="#00CCBC"/>
<path d="M276.743 61L262.396 196.812L237.921 82.3121L161.182 98.5398L185.647 213.03L75 236.42L94.5422 327.879L289.105 369L333.6 269.616L354.774 69.1644L276.734 61L276.743 61.0092V61ZM215.262 258.017C211.248 261.672 205.948 261.336 200.317 259.47C194.699 257.613 192.203 250.855 194.331 242.686C195.917 236.622 203.383 235.708 207.116 235.648C208.536 235.625 209.929 235.91 211.216 236.489C213.855 237.68 218.328 240.217 219.233 244.083C220.544 249.664 219.279 254.349 215.271 258.003H215.262V258.013V258.017ZM271.59 264.32C268.675 269.354 261.026 270.02 253.5 266.356C248.425 263.883 248.466 257.59 249.023 253.751C249.317 251.659 250.167 249.683 251.482 248.028C253.293 245.743 256.318 242.769 259.812 242.677C265.494 242.525 270.39 245.063 273.153 249.655C275.929 254.229 274.541 259.277 271.617 264.32H271.594H271.59Z" fill="white"/>
</svg>
