<svg width="430" height="430" viewBox="0 0 430 430" fill="none" xmlns="http://www.w3.org/2000/svg">
<rect width="430" height="430" rx="92" fill="#FF8000"/>
<path fill-rule="evenodd" clip-rule="evenodd" d="M357.967 211.242C348.526 197.001 336.333 180.017 321.644 162.013C318.918 131.984 314.532 106.139 311.147 89.0057C310.576 86.096 308.22 83.8104 305.266 83.3532C294.717 81.7181 284.757 80.76 276.933 80.2237C276.775 80.2149 276.617 80.2061 276.459 80.2061C272.521 80.2061 269.329 83.3972 269.329 87.3355V107.141C251.818 92.0034 235.133 80.3028 222.387 72.1098C220.312 70.7736 217.842 70 215.196 70C212.55 70 210.079 70.7824 208.005 72.1098C187.742 85.1202 157.554 107.001 129.881 137.469C105.469 164.334 86.085 190.645 72.4329 211.242C71.5274 212.613 71 214.248 71 216.015C71 220.507 74.402 224.208 78.7799 224.674C86.9465 225.536 96.2033 226.424 106.269 227.276C106.91 276.795 111.578 325.215 114.866 352.686C115.411 357.266 120.167 360.8 124.053 360.8C125.995 360.8 170.6 358.084 215.196 358.084C259.791 358.084 304.185 360.8 306.339 360.8C310.664 360.8 314.98 357.257 315.525 352.686C318.813 325.215 323.481 276.795 324.123 227.276C334.188 226.424 343.454 225.536 351.611 224.674C355.98 224.217 359.391 220.516 359.391 216.015C359.391 214.248 358.864 212.605 357.958 211.242H357.967Z" fill="white"/>
<path d="M238.272 307.686C242.553 308.196 248.742 308.882 257.005 309.55C257.005 309.55 255.063 332.872 251.872 358.603C261.12 358.849 269.752 359.156 277.312 359.464C279.554 343.289 283.589 307.686 283.589 261.209C283.589 225.773 282.719 196.764 281.84 177.864C281.62 173.09 277.664 169.292 272.838 169.292C269.752 169.292 267.018 170.84 265.392 173.196C250.316 195.102 229.438 233.703 229.438 279.573C229.438 286.105 229.895 293.867 230.308 299.396C230.624 303.713 233.991 307.168 238.255 307.677L238.272 307.686Z" fill="#FF8000"/>
<path d="M159.578 304.02C160.052 323.387 161.986 345.223 163.393 359.068C171.261 358.796 179.893 358.541 188.904 358.356C187.541 342.041 186.056 318.182 185.203 303.932C196.578 299.168 201.545 287.248 201.545 265.798C201.545 248.709 203.013 209.247 203.945 184.65C204.05 181.811 201.642 179.507 198.802 179.507C195.963 179.507 193.774 181.811 193.66 184.65C192.93 203.119 191.902 229.712 191.532 249.166C191.453 253.148 188.306 256.374 184.324 256.374C180.342 256.374 177.045 253.148 177.115 249.166C177.529 226.503 178.68 201.44 179.489 184.65C179.63 181.811 177.186 179.507 174.346 179.507C171.507 179.507 169.344 181.811 169.204 184.65C168.404 201.502 167.243 226.415 166.83 249.06C166.76 253.095 163.56 256.374 159.516 256.374C155.472 256.374 152.114 253.104 152.202 249.06C152.695 226.424 153.767 201.414 154.576 184.65C154.716 181.811 152.273 179.507 149.433 179.507C146.594 179.507 144.431 181.811 144.291 184.65C143.227 207.005 141.68 243.548 141.68 270.149C141.68 287.986 149.336 299.37 159.534 304.012L159.578 304.02Z" fill="#FF8000"/>
</svg>
