<svg width="430" height="430" viewBox="0 0 430 430" fill="none" xmlns="http://www.w3.org/2000/svg">
<rect width="430" height="430" rx="92" fill="black"/>
<path d="M364.701 138.091C354.825 138.091 347.819 145.821 347.819 157.683V201.201H332.743V124.602H347.638V133.957C351.379 127.643 358.249 123.855 365.583 124.061H371V138.091H364.698H364.701ZM322.326 162.903C322.326 140.06 306.078 122.978 284.085 122.978C262.317 123.127 244.791 140.894 244.94 162.665C244.94 162.743 244.94 162.825 244.94 162.903C244.94 185.728 262.545 202.991 285.509 202.991C298.528 203.237 310.853 197.134 318.55 186.629L307.607 178.612C302.513 185.725 294.256 189.886 285.509 189.754C272.826 189.694 262.087 180.38 260.233 167.831H322.361L322.326 162.9V162.903ZM260.56 155.88C263.251 144.197 272.585 136.288 283.907 136.288C295.228 136.288 304.543 144.197 307.071 155.88H260.563H260.56ZM197.187 122.978C187.011 122.986 177.259 127.064 170.105 134.301V96H155.029V201.204H169.923V191.489C177.14 198.791 186.959 202.929 197.222 202.991C219.315 203.459 237.604 185.928 238.072 163.834C238.541 141.738 221.012 123.446 198.922 122.978C198.356 122.967 197.788 122.967 197.222 122.978H197.187ZM196.104 189.521C181.456 189.591 169.525 177.77 169.455 163.12C169.384 148.469 181.204 136.537 195.852 136.467C210.5 136.396 222.431 148.217 222.501 162.868C222.501 162.941 222.501 163.011 222.501 163.085C222.52 177.624 210.752 189.429 196.212 189.448C196.177 189.448 196.139 189.448 196.104 189.448V189.521ZM99.511 188.798C114.064 188.798 125.367 177.637 125.367 160.916V96H140.984V201.204H125.548V191.254C118.261 198.786 108.206 203.01 97.7243 202.937C75.2796 202.937 58 186.578 58 161.766V96H73.907V161.008C73.907 177.819 84.7409 188.798 99.5083 188.798H99.511Z" fill="white"/>
<path d="M58 227H131.803V245.027H77.936V270.627H130.303V288.043H77.936V314.076H131.803V332.102H58V227ZM335.625 333.995C358.253 333.995 371 323.177 371 308.324C371 297.741 363.451 289.846 347.65 286.421L330.947 283.012C321.251 281.21 318.197 279.407 318.197 275.801C318.197 271.133 322.873 268.265 331.488 268.265C340.824 268.265 347.739 270.77 349.545 279.388H369.121C368.057 263.164 356.371 252.455 332.679 252.455C312.202 252.455 297.827 260.891 297.827 277.241C297.827 288.546 305.736 295.901 322.802 299.488L341.474 303.796C348.841 305.24 350.809 307.221 350.809 310.267C350.809 315.117 345.248 318.163 336.253 318.163C324.949 318.163 318.484 315.657 315.974 307.04H296.29C299.16 323.228 311.187 333.992 335.62 333.992L335.625 333.995ZM290.606 332.029H269.425C256.133 332.029 248.766 323.772 248.766 313.351V272.068H233.869V254.474H248.839V232.39H268.523V254.474H290.609V272.068H268.523V308.321C268.523 312.449 271.393 314.433 275.891 314.433H290.609V332.027L290.606 332.029ZM205.734 254.509V261.504C198.803 255.655 190.014 252.46 180.941 252.49C158.397 252.017 139.737 269.878 139.263 292.384C138.789 314.889 156.681 333.519 179.224 333.992C179.795 334.003 180.369 334.003 180.941 333.992C190.017 334.032 198.808 330.835 205.734 324.977V331.989H225.364V254.474L205.734 254.509ZM182.565 316.976C169.453 317.125 158.698 306.634 158.549 293.541C158.4 280.45 168.908 269.714 182.024 269.565C195.137 269.416 205.891 279.907 206.04 293C206.04 293.095 206.04 293.192 206.04 293.287C206.159 306.229 195.746 316.819 182.782 316.938C182.698 316.938 182.611 316.938 182.527 316.938L182.563 316.974L182.565 316.976Z" fill="#05C167"/>
</svg>
